<svg width="23" height="23" viewBox="0 0 23 23" fill="none" xmlns="http://www.w3.org/2000/svg">
<path d="M6.25 16.75V10.1875M11.5 16.75V6.25M16.75 16.75V14.125M19.375 1H3.625C2.92881 1 2.26113 1.27656 1.76884 1.76884C1.27656 2.26113 1 2.92881 1 3.625V19.375C1 20.0712 1.27656 20.7389 1.76884 21.2312C2.26113 21.7234 2.92881 22 3.625 22H19.375C20.0712 22 20.7389 21.7234 21.2312 21.2312C21.7234 20.7389 22 20.0712 22 19.375V3.625C22 2.92881 21.7234 2.26113 21.2312 1.76884C20.7389 1.27656 20.0712 1 19.375 1Z" stroke="white" stroke-width="2" stroke-linecap="round" stroke-linejoin="round"/>
</svg>
