<svg width="800" height="800" viewBox="0 0 800 800" fill="none" xmlns="http://www.w3.org/2000/svg">
<g clip-path="url(#clip0_59_24)">
<rect width="800" height="800" rx="116" fill="black"/>
<rect x="-25" y="-25" width="850" height="850" fill="black"/>
<path d="M730.755 364.07C724.651 342.529 715.597 322.327 703.651 304.417C693.733 289.531 681.883 276.751 668.887 266.024C649.377 249.916 627.329 238.391 604.837 230.85C600.495 229.403 596.12 228.127 591.734 226.961C629.9 191.313 639.611 125.577 633.496 137.828C628.29 148.232 559.119 186.559 510.151 207.084C528.266 185.165 549.224 147.821 563.721 103.184C563.721 103.184 488.524 172.644 441.802 200.397C427.034 174.73 399.995 88.7615 399.995 88.7615C399.995 88.7615 377.103 154.69 374.9 194.013C337.641 173.143 296.764 125.675 285.508 97.2429C272.232 63.6466 268.483 168.53 304.758 212.605C304.238 212.757 303.742 212.908 303.257 213.047C302.813 212.94 302.392 212.82 301.95 212.723C300.536 212.389 299.118 212.086 297.681 211.795C249.383 191.647 176.432 148.835 171.02 140.41C165.035 131.097 171.992 196.228 207.446 227.167C188.26 232.362 169.183 240.314 151.391 251.43C130.435 264.523 111.227 282.078 96.351 304.417C84.4045 322.328 75.3507 342.529 69.2573 364.07C63.1453 385.609 60.0016 408.513 60.0016 431.954C60.0016 464.772 66.18 498.65 79.3497 531.165C89.223 555.526 103.051 579.108 121.113 600.714C148.196 633.132 184.839 661.013 231.258 680.523C277.677 700.065 333.755 711.311 399.996 711.3C458.892 711.3 509.73 702.431 552.919 686.723C585.295 674.949 613.338 659.34 637.094 640.92C672.732 613.287 698.605 579.388 715.381 543.275C732.18 507.15 739.989 468.865 740 431.953C740.001 408.513 736.858 385.609 730.755 364.07ZM675.638 512.91C667.591 532.787 656.356 551.94 641.619 569.56C619.506 595.983 589.55 619.047 549.904 635.759C510.258 652.437 460.803 662.722 399.996 662.733C345.96 662.733 300.869 654.6 263.687 641.074C235.783 630.93 212.31 617.763 192.681 602.541C163.243 579.693 142.361 552.2 128.663 522.785C114.975 493.38 108.57 462.02 108.57 431.955C108.57 412.889 111.152 394.362 115.981 377.304C120.82 360.235 127.895 344.647 136.765 331.349C143.906 320.655 152.45 311.396 162.043 303.477C176.41 291.605 193.187 282.746 210.602 276.914C228.004 271.059 246.035 268.271 262.454 268.283C272.759 268.272 282.439 269.385 290.855 271.361C299.27 273.316 306.378 276.18 311.692 279.377L316.683 271.08C321.728 269.567 329.679 267.342 339.434 265.138C356.383 261.293 378.809 257.586 399.994 257.619C410.753 257.619 421.848 258.549 432.368 259.986C448.151 262.157 462.627 265.451 473.019 268.196C477.179 269.287 480.635 270.282 483.325 271.092L488.306 279.377C493.62 276.18 500.74 273.316 509.144 271.361C517.559 269.385 527.238 268.272 537.543 268.283C548.487 268.283 560.155 269.505 571.865 272.075C589.44 275.91 607.092 282.747 622.854 292.61C638.636 302.483 652.53 315.308 663.234 331.349C672.104 344.646 679.179 360.235 684.018 377.304C688.847 394.362 691.429 412.889 691.429 431.955C691.432 458.668 686.377 486.431 675.638 512.91Z" fill="white" stroke="white" stroke-width="1.5625"/>
<path d="M204.358 432.159C204.348 411.493 208.647 392.112 215.15 376.945L183.261 363.301C174.802 383.081 169.682 406.738 169.66 432.159C169.66 447.768 171.625 464.015 176.066 480.285C180.508 496.554 187.442 512.845 197.338 528.4L226.612 509.777C218.662 497.278 213.109 484.26 209.544 471.146C205.959 458.053 204.358 444.864 204.358 432.159Z" fill="white" stroke="white" stroke-width="1.5625"/>
</g>
<defs>
<clipPath id="clip0_59_24">
<rect width="800" height="800" rx="116" fill="white"/>
</clipPath>
</defs>
</svg>
