<svg width="23" height="23" viewBox="0 0 23 23" fill="none" xmlns="http://www.w3.org/2000/svg">
<path d="M13.888 22H9.11201L8.45412 19.1067C7.67115 18.8075 6.93893 18.3945 6.28224 17.8817L3.38799 18.7718L1 14.7305L3.23516 12.7262C3.11007 11.9141 3.11007 11.0883 3.23516 10.2762L1 8.27067L3.38799 4.22933L6.28224 5.1195C6.93923 4.60613 7.67186 4.19274 8.45531 3.89333L9.11201 1H13.888L14.5459 3.89333C15.3288 4.19249 16.0611 4.60548 16.7178 5.11833L19.612 4.22817L22 8.2695L19.7648 10.2738C19.89 11.0859 19.89 11.9117 19.7648 12.7238L22 14.7282L19.612 18.7695L16.7178 17.8793C16.0612 18.393 15.329 18.8068 14.5459 19.1067L13.888 22Z" stroke="white" stroke-width="2" stroke-linecap="round" stroke-linejoin="round"/>
<path d="M11.5 15C13.433 15 15 13.433 15 11.5C15 9.567 13.433 8 11.5 8C9.567 8 8 9.567 8 11.5C8 13.433 9.567 15 11.5 15Z" stroke="white" stroke-width="2"/>
</svg>
