<svg width="20" height="20" viewBox="0 0 20 20" fill="none" xmlns="http://www.w3.org/2000/svg">
<path d="M14.75 4H18C18.2652 4 18.5196 4.10536 18.7071 4.29289C18.8946 4.48043 19 4.73478 19 5V8.25C19 8.44891 18.921 8.63968 18.7803 8.78033C18.6397 8.92098 18.4489 9 18.25 9H18C17.4696 9 16.9609 9.21071 16.5858 9.58579C16.2107 9.96086 16 10.4696 16 11C16 11.5304 16.2107 12.0391 16.5858 12.4142C16.9609 12.7893 17.4696 13 18 13H18.25C18.4489 13 18.6397 13.079 18.7803 13.2197C18.921 13.3603 19 13.5511 19 13.75V18C19 18.2652 18.8946 18.5196 18.7071 18.7071C18.5196 18.8946 18.2652 19 18 19H14.75C14.5511 19 14.3603 18.921 14.2197 18.7803C14.079 18.6397 14 18.4489 14 18.25V18C14 17.4696 13.7893 16.9609 13.4142 16.5858C13.0391 16.2107 12.5304 16 12 16C11.4696 16 10.9609 16.2107 10.5858 16.5858C10.2107 16.9609 10 17.4696 10 18V18.25C10 18.4489 9.92098 18.6397 9.78033 18.7803C9.63968 18.921 9.44891 19 9.25 19H5C4.73478 19 4.48043 18.8946 4.29289 18.7071C4.10536 18.5196 4 18.2652 4 18V13.75C4 13.5511 3.92098 13.3603 3.78033 13.2197C3.63968 13.079 3.44891 13 3.25 13H3C2.46957 13 1.96086 12.7893 1.58579 12.4142C1.21071 12.0391 1 11.5304 1 11C1 10.4696 1.21071 9.96086 1.58579 9.58579C1.96086 9.21071 2.46957 9 3 9H3.25C3.44891 9 3.63968 8.92098 3.78033 8.78033C3.92098 8.63968 4 8.44891 4 8.25V5C4 4.73478 4.10536 4.48043 4.29289 4.29289C4.48043 4.10536 4.73478 4 5 4H9.25C9.44891 4 9.63968 3.92098 9.78033 3.78033C9.92098 3.63968 10 3.44891 10 3.25V3C10 2.46957 10.2107 1.96086 10.5858 1.58579C10.9609 1.21071 11.4696 1 12 1C12.5304 1 13.0391 1.21071 13.4142 1.58579C13.7893 1.96086 14 2.46957 14 3V3.25C14 3.664 14.336 4 14.75 4Z" stroke="#3C3C3C" stroke-width="2" stroke-linecap="round" stroke-linejoin="round"/>
</svg>
