<svg width="20" height="20" viewBox="0 0 20 20" fill="none" xmlns="http://www.w3.org/2000/svg">
<path d="M11.5882 12.7488V4.41386M11.5882 12.7488L17.416 16.0255C17.577 16.116 17.7593 16.1633 17.9448 16.1627C18.1302 16.162 18.3122 16.1135 18.4726 16.022C18.6329 15.9304 18.7661 15.799 18.8586 15.6409C18.9512 15.4828 18.9999 15.3036 19 15.1211V2.04153C18.9999 1.85908 18.9512 1.67985 18.8586 1.52176C18.7661 1.36367 18.6329 1.23227 18.4726 1.1407C18.3122 1.04914 18.1302 1.00062 17.9448 1.00001C17.7593 0.999389 17.577 1.0467 17.416 1.13719L11.5882 4.41386M11.5882 12.7488H8.41177M11.5882 4.41386H5.23529C4.11202 4.41386 3.03476 4.85293 2.24049 5.63448C1.44622 6.41604 1 7.47605 1 8.58133C1 9.68661 1.44622 10.7466 2.24049 11.5282C3.03476 12.3097 4.11202 12.7488 5.23529 12.7488M8.41177 12.7488V17.4372C8.41177 17.8517 8.24443 18.2492 7.94658 18.5423C7.64873 18.8353 7.24476 19 6.82353 19C6.4023 19 5.99833 18.8353 5.70048 18.5423C5.40263 18.2492 5.23529 17.8517 5.23529 17.4372V12.7488M8.41177 12.7488H5.23529" stroke="#3C3C3C" stroke-opacity="0.9" stroke-width="2" stroke-linecap="round" stroke-linejoin="round"/>
</svg>
