<svg width="17" height="20" viewBox="0 0 17 20" fill="none" xmlns="http://www.w3.org/2000/svg">
<path d="M15.0623 4.78943L13.8033 6.06173M13.8033 6.06173C12.3968 4.64039 10.4891 3.84188 8.5 3.84188C6.51088 3.84188 4.60322 4.64039 3.1967 6.06173C1.79018 7.48308 1 9.41085 1 11.4209C1 13.431 1.79018 15.3588 3.1967 16.7801C4.60322 18.2015 6.51088 19 8.5 19C10.4891 19 12.3968 18.2015 13.8033 16.7801C15.2098 15.3588 16 13.431 16 11.4209C16 9.41085 15.2098 7.48308 13.8033 6.06173ZM8.5 7.63151V11.4209M5.68757 1H11.3124" stroke="#3C3C3C" stroke-opacity="0.9" stroke-width="2" stroke-linecap="round" stroke-linejoin="round"/>
</svg>
